<svg width="32" height="32" viewBox="0 0 32 32" fill="none" xmlns="http://www.w3.org/2000/svg">
<path d="M25.6365 16.7713C25.8585 16.5879 26 16.3105 26 16C26 15.6895 25.8585 15.4121 25.6365 15.2287C25.6142 15.2022 25.5906 15.1764 25.5656 15.1515L20.7071 10.2929C20.3165 9.90237 19.6834 9.90237 19.2928 10.2929C18.9023 10.6834 18.9023 11.3166 19.2928 11.7071L22.5857 15H8C7.44772 15 7 15.4477 7 16C7 16.5523 7.44772 17 8 17H22.5857L19.2928 20.2929C18.9023 20.6834 18.9023 21.3166 19.2928 21.7071C19.6834 22.0976 20.3165 22.0976 20.7071 21.7071L25.5656 16.8485C25.5906 16.8236 25.6142 16.7978 25.6365 16.7713Z" fill="#095C18"/>
</svg>
