<svg width="200" height="33" viewBox="0 0 200 33" fill="none" xmlns="http://www.w3.org/2000/svg">
<path d="M89.426 9.52871L93.5951 6.42352H79.6375V25.0243H93.5951V21.9191H83.6254V17.1699H92.145V14.0647H83.6254V9.52871H89.426Z" fill="white"/>
<path d="M69.0935 13.669H64.2597V9.52871H71.9939L76.163 6.42352H60.2717V25.0243H68.5799C73.2325 25.0243 75.9212 22.8932 75.9212 19.1792C75.9212 15.6173 73.5043 13.669 69.0935 13.669ZM68.4288 21.9191H64.2597V16.7742H68.4288C70.9667 16.7742 72.1449 17.6266 72.1449 19.3618C72.1449 21.0971 70.876 21.9191 68.4288 21.9191Z" fill="white"/>
<path d="M104.894 6.42352H97.3113V25.0243H101.299V19.7575H104.924C109.758 19.7575 112.779 17.2004 112.779 13.0906C112.779 8.98073 109.758 6.42352 104.894 6.42352ZM104.804 16.6524H101.269V9.52871H104.804C107.372 9.52871 108.761 10.8073 108.761 13.0906C108.761 15.3738 107.372 16.6524 104.804 16.6524Z" fill="white"/>
<path d="M53.4442 21.0056C52.3869 21.5841 51.2086 21.8885 50.0001 21.8885C46.4049 21.8885 43.8067 19.3009 43.8067 15.7391C43.8067 12.1772 46.4049 9.58956 50.0001 9.58956C51.2991 9.55912 52.568 9.98531 53.6255 10.7464L56.4956 8.61537L56.3143 8.43271C54.6527 6.941 52.417 6.17993 49.8793 6.17993C47.13 6.17993 44.6224 7.12366 42.8098 8.82847C40.997 10.5942 39.9698 13.0601 40.0304 15.6173C40.0001 18.2049 40.997 20.7013 42.8098 22.5278C44.7131 24.3241 47.2508 25.3285 49.849 25.2678C52.7191 25.2678 55.2267 24.2631 56.9185 22.4365L54.3506 20.5186L53.4442 21.0056Z" fill="white"/>
<path d="M160.725 6.45397V25.0546H164.713V17.4439H173.202V25.0546H177.19V6.45397H173.202V14.0952H164.713V6.45397H160.725ZM153.867 25.0546H158.066L150.272 6.45397H146.224L138.278 25.0546H142.296L143.897 21.3101H152.357L153.867 25.0546ZM145.106 18.205L148.187 10.7464L151.088 18.205H145.106ZM186.133 17.5352H188.61L194.713 25.0243H199.849L191.692 15.4042L198.821 6.42352H194.26L188.339 14.3996H186.133V6.42352H182.145V25.0243H186.133V17.5352ZM125.106 13.6994V9.55915H135.529V6.45397H121.118V25.0546H129.426C134.079 25.0546 136.767 22.9237 136.767 19.2096C136.767 15.6478 134.351 13.6994 129.94 13.6994H125.106ZM125.106 21.9495V16.8046H129.275C131.813 16.8046 132.991 17.657 132.991 19.3923C132.991 21.1276 131.752 21.9798 129.275 21.9798H125.106V21.9495Z" fill="white"/>
<path d="M27.5529 6.3017C28.278 7.24544 28.8823 8.28051 29.3958 9.37645L15.4382 19.7575L9.57715 16.0435V11.5988L15.408 15.2824L27.5529 6.3017Z" fill="white"/>
<path d="M3.62532 15.739C3.62532 15.5259 3.62532 15.3433 3.65553 15.1302L0.120788 14.9475C0.120788 15.1911 0.0905762 15.465 0.0905762 15.7086C0.0905762 19.9707 1.81263 23.8369 4.59208 26.6376L7.09963 24.1108C4.95462 21.9798 3.62532 19.0269 3.62532 15.739Z" fill="white"/>
<path d="M15.4078 3.86628C15.6192 3.86628 15.8005 3.86628 16.012 3.89673L16.1932 0.334886C15.9516 0.334886 15.6797 0.304443 15.438 0.304443C11.2084 0.304443 7.3715 2.0397 4.59204 4.84046L7.09959 7.36723C9.21439 5.20578 12.1751 3.86628 15.4078 3.86628Z" fill="white"/>
<path d="M15.4078 27.6119C15.1963 27.6119 15.0151 27.6119 14.8036 27.5814L14.6223 31.1433C14.864 31.1433 15.1359 31.1736 15.3776 31.1736C19.6071 31.1736 23.444 29.4385 26.2234 26.6377L23.7159 24.1109C21.6011 26.3027 18.6706 27.6119 15.4078 27.6119Z" fill="white"/>
<path d="M22.0545 5.9364L25.0454 3.71405C22.417 1.58304 19.0636 0.273987 15.408 0.273987V3.83582C17.8853 3.86627 20.1815 4.62733 22.0545 5.9364Z" fill="white"/>
<path d="M30.7553 15.7391C30.7553 14.7953 30.6646 13.8821 30.5135 12.9688L27.2205 15.4346C27.2205 15.526 27.2205 15.6477 27.2205 15.7391C27.2205 19.24 25.7098 22.3757 23.3232 24.5371L25.7098 27.1856C28.7914 24.3849 30.7553 20.2752 30.7553 15.7391Z" fill="white"/>
<path d="M15.4079 27.6118C11.9335 27.6118 8.82176 26.0897 6.67675 23.6846L4.04834 26.0897C6.85801 29.2252 10.9063 31.1736 15.4079 31.1736V27.6118Z" fill="white"/>
<path d="M7.5226 6.94104L5.1359 4.29248C2.02412 7.12368 0.0905762 11.2031 0.0905762 15.7391H3.62532C3.62532 12.2686 5.1359 9.1025 7.5226 6.94104Z" fill="white"/>
</svg>
