<svg width="29" height="28" viewBox="0 0 29 28" fill="none" xmlns="http://www.w3.org/2000/svg">
<g id="Logo_Sberbank 2">
<g id="Group 1">
<path id="Vector" d="M24.7853 6.07095C25.4001 6.86503 25.9124 7.73601 26.3478 8.65817L14.513 17.3932L9.5437 14.268V10.5281L14.4877 13.6277L24.7853 6.07095Z" fill="white"/>
<path id="Vector_2" d="M4.49709 14.0091C4.49709 13.8298 4.49709 13.6761 4.52271 13.4967L1.52562 13.3431C1.52562 13.548 1.5 13.7786 1.5 13.9835C1.5 17.5698 2.96012 20.8228 5.31678 23.1798L7.44289 21.0537C5.62414 19.2605 4.49709 16.7756 4.49709 14.0091Z" fill="white"/>
<path id="Vector_3" d="M14.4874 4.01982C14.6667 4.01982 14.8204 4.01982 14.9997 4.04544L15.1534 1.04835C14.9485 1.04835 14.7179 1.02274 14.513 1.02274C10.9267 1.02274 7.67367 2.48285 5.31665 4.83952L7.44276 6.96563C9.2359 5.14688 11.7464 4.01982 14.4874 4.01982Z" fill="white"/>
<path id="Vector_4" d="M14.4873 24.0028C14.308 24.0028 14.1543 24.0028 13.975 23.9772L13.8213 26.9743C14.0262 26.9743 14.2568 26.9999 14.4617 26.9999C18.0479 26.9999 21.301 25.5398 23.658 23.1831L21.5319 21.0569C19.7388 22.9013 17.2539 24.0028 14.4873 24.0028Z" fill="white"/>
<path id="Vector_5" d="M20.123 5.76461L22.659 3.89462C20.4304 2.10153 17.5871 1 14.4873 1V3.99709C16.5878 4.0227 18.5346 4.66313 20.123 5.76461Z" fill="white"/>
<path id="Vector_6" d="M27.5001 14.0091C27.5001 13.215 27.4232 12.4465 27.2951 11.678L24.503 13.753V14.0091C24.503 16.955 23.2222 19.5933 21.1985 21.4123L23.2222 23.6409C25.835 21.2842 27.5001 17.8263 27.5001 14.0091Z" fill="white"/>
<path id="Vector_7" d="M14.4874 24.0028C11.5416 24.0028 8.90322 22.722 7.08429 20.6983L4.85571 22.722C7.23799 25.3604 10.6703 26.9999 14.4876 26.9999L14.4874 24.0028Z" fill="white"/>
<path id="Vector_8" d="M7.80158 6.60816L5.77789 4.37953C3.13944 6.76181 1.5 10.1942 1.5 14.0109H4.49709C4.49709 11.0907 5.77789 8.42709 7.80158 6.60816Z" fill="white"/>
</g>
</g>
</svg>
