<svg width="20" height="20" viewBox="0 0 20 20" fill="none" xmlns="http://www.w3.org/2000/svg">
<g clip-path="url(#clip0_104_8)">
<path d="M0.976552 19.707C0.8663 19.707 0.757685 19.6803 0.65997 19.6293C0.562254 19.5782 0.478339 19.5043 0.415382 19.4138C0.352425 19.3232 0.312293 19.2188 0.29841 19.1095C0.284527 19.0001 0.297305 18.889 0.335654 18.7856L3.14815 11.2042C3.18963 11.0924 3.25962 10.9934 3.35117 10.917C3.44273 10.8407 3.55266 10.7896 3.67007 10.7688L9.49999 9.99995L3.67319 9.2707C3.55497 9.25037 3.44418 9.19928 3.35195 9.12258C3.25972 9.04587 3.1893 8.94625 3.14776 8.83371L0.335263 1.2132C0.287823 1.08463 0.280123 0.944764 0.313162 0.811761C0.346201 0.678758 0.418454 0.558756 0.520544 0.467329C0.622634 0.375901 0.749848 0.317269 0.885675 0.299042C1.0215 0.280815 1.15967 0.303835 1.28226 0.365113L19.3291 9.38855C19.4426 9.44535 19.5381 9.53261 19.6048 9.64059C19.6715 9.74856 19.7068 9.87296 19.7068 9.99988C19.7068 10.1268 19.6715 10.2512 19.6048 10.3592C19.5381 10.4671 19.4426 10.5544 19.3291 10.6112L1.28226 19.6346C1.18737 19.6822 1.08269 19.707 0.976552 19.707Z" fill="#767676"/>
</g>
<defs>
<clipPath id="clip0_104_8">
<rect width="20" height="20" fill="white"/>
</clipPath>
</defs>
</svg>
